# xmcd
#
# Track frame offsets: 
#        150
#        14531
#        41782
#        60850
#        81808
#        109680
#        128878
#        146543
#        171229
#        183586
#        198680
#        230168
#        255570
#        272851
#
# Disc length: 3976 seconds
#
# Revision: 0
# Processed by: cddbd v1.5.2PL0 Copyright (c) Steve Scherf et al.
# Submitted via: ExactAudioCopy v1.0b3
#
DISCID=cc0f860e
DTITLE=Lurrie Bell - Blues In My Soul
DYEAR=2013
DGENRE=Blues
TTITLE0=Hey Hey Baby
TTITLE1=Blues in My Soul
TTITLE2=I Feel so Good
TTITLE3=She's a Good 'Un
TTITLE4='Bout the Break of Day
TTITLE5=Going Away Baby
TTITLE6=24 Hour Blues
TTITLE7=My Little Machine
TTITLE8=I Just Keep Loving Her
TTITLE9=T-Bone Blues Special
TTITLE10=Just the Blues
TTITLE11=South Side to Riverside
TTITLE12=If It's Too Late
TTITLE13=Blues Never Die
EXTD=
EXTT0=
EXTT1=
EXTT2=
EXTT3=
EXTT4=
EXTT5=
EXTT6=
EXTT7=
EXTT8=
EXTT9=
EXTT10=
EXTT11=
EXTT12=
EXTT13=
PLAYORDER=
